<svg width="40" height="38" viewBox="0 0 40 38" fill="none" xmlns="http://www.w3.org/2000/svg">
    <path d="M35.3672 8.41865C35.1466 8.63872 34.2193 9.37565 33.0681 10.2081C32.422 10.6753 31.7053 11.1727 31.0034 11.6256C31.4343 12.1726 31.7984 12.7328 32.0911 13.311C32.6565 14.4278 32.9557 15.6113 32.9557 16.8942V18.4977C32.9557 18.9559 32.8408 19.414 32.6112 19.7576C33.0705 21.132 33.6447 22.8501 33.7595 23.9954C34.104 27.0879 32.726 29.8367 31.2331 29.8367C31.1364 29.8367 31.0447 29.8265 30.9581 29.8073C30.6337 29.7351 30.3809 29.5353 30.1996 29.264C29.7085 29.9498 29.1491 30.5884 28.5316 31.1686C26.2612 33.3021 23.2047 34.6472 19.8642 34.6472C16.5127 34.6472 13.4469 33.3644 11.1742 31.1924C10.5657 30.6109 10.014 29.9656 9.5289 29.264C9.34049 29.5459 9.0748 29.7507 8.73182 29.8152C8.65671 29.8293 8.57789 29.8367 8.49537 29.8367C6.88765 29.8367 5.62444 27.0879 5.96895 23.9954C6.08379 22.8501 6.65797 21.132 7.11732 19.7576C6.88765 19.414 6.77281 18.9559 6.77281 18.4977V16.8942C6.77281 15.5327 7.10974 14.2271 7.74434 13.0559C8.01724 12.5522 8.34518 12.0734 8.72504 11.6256C8.04438 11.1589 7.3322 10.645 6.68775 10.1655C5.59255 9.35062 4.69296 8.63496 4.47607 8.41865C2.98319 6.92969 2.52384 4.86806 3.55737 3.83724C4.47607 2.80643 6.54314 3.26457 8.03602 4.75352C8.33524 4.97735 9.17047 5.97877 10.0338 7.21961C10.4959 7.88365 10.966 8.61624 11.3663 9.33493C11.727 9.10769 12.1066 8.89611 12.504 8.70122C14.5101 7.71731 16.9697 7.15876 19.7494 7.15876C22.9623 7.15876 25.8546 7.90499 28.0137 9.19176C28.0926 9.23876 28.1704 9.28649 28.2473 9.33493C28.3692 9.13609 28.4953 8.93618 28.624 8.73696C29.83 6.87057 31.2663 5.06399 31.5776 4.75352C33.0705 3.26457 35.1376 2.80643 36.1711 3.83724C37.2046 4.86806 36.7453 6.81515 35.3672 8.41865ZM12.2724 6.06261C14.475 5.14331 17.0119 4.65876 19.7494 4.65876C22.5058 4.65876 25.1337 5.15035 27.3931 6.09226C27.6917 5.66657 27.9845 5.26436 28.2548 4.90288C28.8708 4.07903 29.4914 3.3034 29.8122 2.98343C30.8561 1.94222 32.1699 1.18505 33.5414 0.902053C34.8938 0.622976 36.635 0.768991 37.9365 2.06715C39.2228 3.35005 39.3882 5.04313 39.128 6.38811C38.8694 7.72466 38.1662 8.99738 37.2633 10.0481L37.2007 10.1209L37.1327 10.1887C36.8107 10.5098 36.055 11.105 35.2857 11.6804C35.01 11.8866 34.7108 12.1065 34.3962 12.3326C35.0737 13.7215 35.4557 15.2361 35.4557 16.8942V18.4977C35.4557 18.9227 35.4031 19.3849 35.276 19.8485C35.6688 21.0478 36.1252 22.556 36.2456 23.7312C36.4616 25.6907 36.1466 27.6025 35.4613 29.1102C35.1187 29.864 34.6405 30.6103 33.9957 31.2015C33.35 31.7936 32.4085 32.3367 31.2331 32.3367C31.1237 32.3367 31.0164 32.3322 30.9112 32.3235C28.156 35.2454 24.2264 37.1472 19.8642 37.1472C15.5241 37.1472 11.5662 35.3419 8.7851 32.326C8.69023 32.3331 8.59364 32.3367 8.49537 32.3367C6.15557 32.3367 4.80587 30.4292 4.21276 29.0848C3.54109 27.5623 3.27064 25.6561 3.48288 23.7316C3.60321 22.5563 4.0596 21.048 4.45247 19.8485C4.32535 19.385 4.27281 18.9227 4.27281 18.4977V16.8942C4.27281 15.2648 4.64276 13.6973 5.33538 12.2751C5.05153 12.0649 4.77925 11.8603 4.52596 11.6674C3.78295 11.1015 3.02696 10.5042 2.71063 10.1887C1.66681 9.14767 0.906 7.83575 0.621429 6.46394C0.34417 5.12738 0.484664 3.41295 1.74109 2.11868C3.01512 0.738245 4.80169 0.632238 6.0951 0.903821C7.41007 1.17993 8.68408 1.90124 9.71053 2.89412C10.0114 3.15241 10.2935 3.47203 10.4864 3.69693C10.7742 4.03259 11.1036 4.44631 11.445 4.90288C11.7097 5.2569 11.9904 5.64837 12.2724 6.06261Z"
          stroke="#3A3A44" fill-rule="evenodd" fill="#3A3A44" stroke-width="0.5"/>
</svg>
